# xmcd
#
# Track frame offsets: 
#        150
#        15651
#        27617
#        45976
#        59749
#        75709
#        91607
#        108334
#        123091
#        140497
#        155345
#        172565
#        185531
#        200751
#
# Disc length: 2944 seconds
#
# Revision: 0
# Processed by: cddbd v1.5.2PL0 Copyright (c) Steve Scherf et al.
# Submitted via: ExactAudioCopyFreeDBPlugin 1.0
#
DISCID=ad0b7e0e
DTITLE=Jill Johnson - A Women Can Change Her Mind
DYEAR=2012
DGENRE=Country
TTITLE0=A Women Can Change Her Mind
TTITLE1=The Chill
TTITLE2=Fast Trip up
TTITLE3=Jacked Up Heart
TTITLE4=Are You Feeling It Now
TTITLE5=Over A Man
TTITLE6=Scene Of The Crime
TTITLE7=The Whiskey's Working
TTITLE8=Hurting Out Loud
TTITLE9=That Boy Is A Long Story
TTITLE10=Nobody's Gettin' Out Of This Love Alive duet with Nathan Chap
TTITLE10=man
TTITLE11=Looking For Home
TTITLE12=White Lightning
TTITLE13=Come Wake Me Up duet with Rascal Flatts
EXTD=
EXTT0=
EXTT1=
EXTT2=
EXTT3=
EXTT4=
EXTT5=
EXTT6=
EXTT7=
EXTT8=
EXTT9=
EXTT10=
EXTT11=
EXTT12=
EXTT13=
PLAYORDER=
